# Blender v2.76 (sub 0) OBJ File: 'precision_turret.blend'
# www.blender.org
mtllib precision_laser_turret_head.mtl
o Head_Cube.002
v -0.187500 -0.187500 0.187500
v -0.187500 0.187500 0.187500
v -0.187500 -0.187500 -0.187500
v -0.187500 0.187500 -0.187500
v 0.187500 -0.187500 0.187500
v 0.187500 0.187500 0.187500
v 0.187500 -0.187500 -0.187500
v 0.187500 0.187500 -0.187500
vn -1.000000 0.000000 0.000000
vn 0.000000 0.000000 -1.000000
vn 1.000000 0.000000 0.000000
vn 0.000000 0.000000 1.000000
vn 0.000000 -1.000000 0.000000
vn 0.000000 1.000000 0.000000
usemtl BaseMaterial
s off
f 2//1 4//1 3//1 1//1
f 4//2 8//2 7//2 3//2
f 8//3 6//3 5//3 7//3
f 6//4 2//4 1//4 5//4
f 1//5 3//5 7//5 5//5
f 6//6 8//6 4//6 2//6
o Ring_3_Cube.017
v -0.125000 -0.125000 0.687500
v -0.125000 0.125000 0.687500
v -0.125000 -0.125000 0.625000
v -0.125000 0.125000 0.625000
v 0.125000 -0.125000 0.687500
v 0.125000 0.125000 0.687500
v 0.125000 -0.125000 0.625000
v 0.125000 0.125000 0.625000
vn -1.000000 0.000000 0.000000
vn 0.000000 0.000000 -1.000000
vn 1.000000 0.000000 0.000000
vn 0.000000 0.000000 1.000000
vn 0.000000 -1.000000 0.000000
vn 0.000000 1.000000 0.000000
usemtl BaseMaterial
s off
f 10//7 12//7 11//7 9//7
f 12//8 16//8 15//8 11//8
f 16//9 14//9 13//9 15//9
f 14//10 10//10 9//10 13//10
f 9//11 11//11 15//11 13//11
f 14//12 16//12 12//12 10//12
o Ring_1_Cube.015
v -0.187500 -0.187500 0.312500
v -0.187500 0.187500 0.312500
v -0.187500 -0.187500 0.250000
v -0.187500 0.187500 0.250000
v 0.187500 -0.187500 0.312500
v 0.187500 0.187500 0.312500
v 0.187500 -0.187500 0.250000
v 0.187500 0.187500 0.250000
vn -1.000000 0.000000 0.000000
vn 0.000000 0.000000 -1.000000
vn 1.000000 0.000000 0.000000
vn 0.000000 0.000000 1.000000
vn 0.000000 -1.000000 0.000000
vn 0.000000 1.000000 0.000000
usemtl BaseMaterial
s off
f 18//13 20//13 19//13 17//13
f 20//14 24//14 23//14 19//14
f 24//15 22//15 21//15 23//15
f 22//16 18//16 17//16 21//16
f 17//17 19//17 23//17 21//17
f 22//18 24//18 20//18 18//18
o Barrel_Cube.005
v -0.062500 -0.062500 1.000000
v -0.062500 0.062500 1.000000
v -0.062500 -0.062500 0.187500
v -0.062500 0.062500 0.187500
v 0.062500 -0.062500 1.000000
v 0.062500 0.062500 1.000000
v 0.062500 -0.062500 0.187500
v 0.062500 0.062500 0.187500
vn -1.000000 0.000000 0.000000
vn 1.000000 0.000000 0.000000
vn 0.000000 0.000000 1.000000
vn 0.000000 -1.000000 0.000000
vn 0.000000 1.000000 0.000000
usemtl BaseMaterial
s off
f 26//19 28//19 27//19 25//19
f 32//20 30//20 29//20 31//20
f 30//21 26//21 25//21 29//21
f 25//22 27//22 31//22 29//22
f 30//23 32//23 28//23 26//23
o Ring_2_Cube.016
v -0.125000 -0.125000 0.500000
v -0.125000 0.125000 0.500000
v -0.125000 -0.125000 0.437500
v -0.125000 0.125000 0.437500
v 0.125000 -0.125000 0.500000
v 0.125000 0.125000 0.500000
v 0.125000 -0.125000 0.437500
v 0.125000 0.125000 0.437500
vn -1.000000 0.000000 0.000000
vn 0.000000 0.000000 -1.000000
vn 1.000000 0.000000 0.000000
vn 0.000000 0.000000 1.000000
vn 0.000000 -1.000000 0.000000
vn 0.000000 1.000000 0.000000
usemtl BaseMaterial
s off
f 34//24 36//24 35//24 33//24
f 36//25 40//25 39//25 35//25
f 40//26 38//26 37//26 39//26
f 38//27 34//27 33//27 37//27
f 33//28 35//28 39//28 37//28
f 38//29 40//29 36//29 34//29
